<svg xmlns="http://www.w3.org/2000/svg" viewBox="0 0 480 360" role="img" aria-labelledby="t4">
  <title id="t4">Koło czterech pór roku rozgrywki z symbolami roztopów, posuchy, żniw i zamrożka</title>
  <rect width="480" height="360" fill="#f6f0e2"/>
  <g transform="translate(240 180)">
    <circle r="128" fill="none" stroke="#b7a06f" stroke-width="1.4" stroke-dasharray="2 6"/>
    <path d="M0 -128 A 128 128 0 0 1 128 0 L0 0 Z" fill="#e7d9b3" opacity="0.7"/>
    <path d="M128 0 A 128 128 0 0 1 0 128 L0 0 Z" fill="#cfe0c9" opacity="0.7"/>
    <path d="M0 128 A 128 128 0 0 1 -128 0 L0 0 Z" fill="#e0c39a" opacity="0.7"/>
    <path d="M-128 0 A 128 128 0 0 1 0 -128 L0 0 Z" fill="#cfd8e0" opacity="0.7"/>
    <circle r="46" fill="#fbf6ea" stroke="#b7a06f" stroke-width="1.5"/>
    <g stroke="#5c4a2e" stroke-width="1.6" fill="none">
      <path d="M-14 0 A 14 14 0 1 1 14 0" />
      <path d="M14 0 l -6 -6 M14 0 l 6 6" />
    </g>
    <g transform="translate(64 -70)" stroke="#3c5843" stroke-width="2" fill="none">
      <path d="M0 12 C 4 0, -4 -8, 0 -14"/>
      <path d="M0 -2 C 6 -2, 9 -8, 8 -14"/>
      <path d="M0 4 C -6 4, -9 -2, -8 -10"/>
    </g>
    <g transform="translate(70 66)" stroke="#9a4a30" stroke-width="2" fill="none">
      <line x1="-10" y1="10" x2="10" y2="-10"/>
      <line x1="-10" y1="-10" x2="10" y2="10"/>
      <line x1="0" y1="-14" x2="0" y2="14"/>
      <line x1="-14" y1="0" x2="14" y2="0"/>
    </g>
    <g transform="translate(-66 68)" stroke="#7a5a25" stroke-width="2" fill="none">
      <path d="M-10 10 L0 -12 L10 10 Z"/>
      <line x1="0" y1="10" x2="0" y2="14"/>
    </g>
    <g transform="translate(-70 -64)" stroke="#43587a" stroke-width="2" fill="none">
      <path d="M-10 -6 L10 -6 M-8 0 L8 0 M-6 6 L6 6"/>
    </g>
  </g>
  <g fill="#5c4a2e" font-family="serif" font-size="1">
  </g>
</svg>
